<?xml version="1.0" standalone="no"?>
<!DOCTYPE svg PUBLIC "-//W3C//DTD SVG 20010904//EN"
 "http://www.w3.org/TR/2001/REC-SVG-20010904/DTD/svg10.dtd">
<svg version="1.0" xmlns="http://www.w3.org/2000/svg"
 width="400.000000pt" height="300.000000pt" viewBox="0 0 400.000000 300.000000"
 preserveAspectRatio="xMidYMid meet">
<metadata>
Created by potrace 1.16, written by Peter Selinger 2001-2019
</metadata>
<g transform="translate(0.000000,300.000000) scale(0.100000,-0.100000)"
fill="#2de6b2" stroke="none">
<path d="M1685 2621 c-60 -16 -137 -40 -170 -55 -155 -70 -176 -81 -192 -98
-9 -10 -20 -18 -26 -18 -17 0 -132 -98 -200 -169 -205 -218 -317 -501 -317
-802 0 -260 70 -490 212 -697 212 -307 590 -502 975 -502 162 0 356 46 502
120 55 27 103 54 106 61 5 7 16 2 34 -15 49 -47 117 -68 201 -64 128 8 237 85
274 195 34 98 14 232 -44 305 l-32 39 27 60 c124 277 143 565 54 840 -36 112
-117 265 -193 366 -71 93 -182 204 -236 234 -14 8 -40 27 -59 43 -19 16 -51
35 -70 43 -20 8 -62 28 -93 44 -31 16 -117 45 -190 64 -126 33 -142 35 -293
34 -140 -1 -174 -4 -270 -28z m453 -491 c144 -40 258 -118 360 -244 75 -93 99
-144 128 -268 29 -122 30 -172 4 -291 -32 -146 -76 -225 -191 -340 -83 -83
-110 -103 -181 -136 -167 -77 -301 -90 -471 -47 -122 31 -195 70 -284 151
-122 111 -191 240 -220 413 -14 82 -14 110 -4 180 43 297 242 523 516 585 39
9 79 18 90 21 40 10 181 -4 253 -24z m657 -1274 c22 -10 41 -28 54 -55 26 -50
26 -62 1 -112 -23 -45 -51 -59 -117 -59 -38 0 -50 5 -79 34 -29 29 -34 40 -34
83 1 53 19 83 67 108 35 19 64 19 108 1z"/>
<path d="M1801 2089 c-166 -38 -293 -136 -393 -301 -73 -119 -82 -156 -83
-318 0 -126 3 -153 22 -204 34 -90 81 -162 158 -244 115 -122 171 -152 353
-187 87 -17 99 -17 191 -2 53 9 123 25 154 37 84 32 196 118 260 202 98 128
137 241 137 398 0 112 -17 184 -64 277 -142 280 -427 413 -735 342z m209 -260
c77 -18 168 -69 215 -121 62 -69 89 -143 89 -243 0 -69 -4 -89 -30 -145 -39
-82 -98 -141 -183 -182 -56 -28 -77 -33 -141 -33 -67 0 -84 4 -145 35 -87 44
-158 113 -193 187 -36 76 -38 202 -5 274 42 94 151 184 263 220 65 21 72 22
130 8z"/>
<path d="M1874 1772 c-98 -35 -194 -130 -220 -218 -34 -119 5 -239 106 -323
79 -66 132 -85 219 -79 113 8 201 69 253 176 64 130 38 275 -68 372 -86 79
-194 106 -290 72z"/>
</g>
</svg>
